# xmcd
#
# Track frame offsets:
#	150
#	19800
#	35762
#	53007
#	71537
#	89945
#	105925
#	122732
#	140337
#	156875
#	173120
#	190307
#	206600
#	223080
#
# Disc length: 3208 seconds
#
# Revision: 1
# Processed by: cddbd v1.5.2PL0 Copyright (c) Steve Scherf et al.
# Submitted via: EasyCDDAExtractor 11.9.9.666
#
DISCID=cc0c860e
DTITLE=Ирина Аллегрова - Я тучи разведу руками
DYEAR=1996
DGENRE=Pop
TTITLE0=Я тучи разведу руками
TTITLE1=Целуй меня
TTITLE2=Ладони
TTITLE3=Любовница
TTITLE4=Занавес
TTITLE5=Медовый месяц
TTITLE6=Ну и пусть
TTITLE7=Девочка по имени "Хочу"
TTITLE8=Именины черствые
TTITLE9=Вчера
TTITLE10=Свадебные цветы
TTITLE11=Ожидание
TTITLE12=Любишь или нет
TTITLE13=Исповедь
EXTD=YEAR: 1996
EXTT0=
EXTT1=
EXTT2=
EXTT3=
EXTT4=
EXTT5=
EXTT6=
EXTT7=
EXTT8=
EXTT9=
EXTT10=
EXTT11=
EXTT12=
EXTT13=
PLAYORDER=
